<?xml version="1.0" encoding="UTF-8"?>
<svg width="51px" height="51px" viewBox="0 0 51 51" version="1.1" xmlns="http://www.w3.org/2000/svg" xmlns:xlink="http://www.w3.org/1999/xlink">
    <!-- Generator: Sketch 50.2 (55047) - http://www.bohemiancoding.com/sketch -->
    <title>flag/usa</title>
    <desc>Created with Sketch.</desc>
    <defs>
        <path d="M1.12,25.80108 C1.12,39.0570251 11.8645349,49.80156 25.11952,49.80156 C38.3745051,49.80156 49.12,39.0570251 49.12,25.80108 C49.12,12.5460949 38.3745051,1.8006 25.11952,1.8006 C11.8645349,1.8006 1.12,12.5460949 1.12,25.80108 Z" id="path-1"></path>
    </defs>
    <g id="flag/usa" stroke="none" stroke-width="1" fill="none" fill-rule="evenodd">
        <mask id="mask-2" fill="white">
            <use xlink:href="#path-1"></use>
        </mask>
        <use id="Clip-2" fill="#D8D8D8" xlink:href="#path-1"></use>
        <polygon id="Fill-1" fill="#FC2727" mask="url(#mask-2)" points="-3 19.8496 80.434 19.8496 80.434 15.8696 -3 15.8696"></polygon>
        <polygon id="Fill-3" fill="#FC2727" mask="url(#mask-2)" points="-3 11.9076 80.434 11.9076 80.434 7.9316 -3 7.9316"></polygon>
        <polygon id="Fill-4" fill="#FC2727" mask="url(#mask-2)" points="-3 3.9756 80.434 3.9756 80.434 -0.0004 -3 -0.0004"></polygon>
        <polygon id="Fill-5" fill="#FC2727" mask="url(#mask-2)" points="-3 27.7916 80.434 27.7916 80.434 23.8116 -3 23.8116"></polygon>
        <polygon id="Fill-6" fill="#FC2727" mask="url(#mask-2)" points="-3 35.7186 80.434 35.7186 80.434 31.7386 -3 31.7386"></polygon>
        <polygon id="Fill-7" fill="#FC2727" mask="url(#mask-2)" points="-3 43.6556 80.434 43.6556 80.434 39.6796 -3 39.6796"></polygon>
        <polygon id="Fill-8" fill="#FC2727" mask="url(#mask-2)" points="-3 51.5786 80.434 51.5786 80.434 47.6026 -3 47.6026"></polygon>
        <polygon id="Fill-9" fill="#FFFFFF" mask="url(#mask-2)" points="-3 15.8786 80.434 15.8786 80.434 11.9026 -3 11.9026"></polygon>
        <polygon id="Fill-10" fill="#FFFFFF" mask="url(#mask-2)" points="-3 7.9466 80.434 7.9466 80.434 3.9706 -3 3.9706"></polygon>
        <polygon id="Fill-11" fill="#FFFFFF" mask="url(#mask-2)" points="-3 23.8206 80.434 23.8206 80.434 19.8446 -3 19.8446"></polygon>
        <polygon id="Fill-12" fill="#FFFFFF" mask="url(#mask-2)" points="-3 31.7436 80.434 31.7436 80.434 27.7676 -3 27.7676"></polygon>
        <polygon id="Fill-13" fill="#FFFFFF" mask="url(#mask-2)" points="-3 39.6846 80.434 39.6846 80.434 35.7086 -3 35.7086"></polygon>
        <polygon id="Fill-14" fill="#FFFFFF" mask="url(#mask-2)" points="-3 47.6226 80.434 47.6226 80.434 43.6456 -3 43.6456"></polygon>
        <polygon id="Fill-15" fill="#1E3E9D" mask="url(#mask-2)" points="-3 24.1496 28.198 24.1496 28.198 0.1286 -3 0.1286"></polygon>
        <polygon id="Fill-16" fill="#FFFFFF" mask="url(#mask-2)" points="23.0743 4.8986 23.4053 5.8306 22.6153 5.2456 22.6133 5.2406 22.6103 5.2456 21.8263 5.8306 22.1543 4.8986 22.1643 4.8936 22.1593 4.8936 21.3453 4.3466 22.3233 4.3466 22.5923 3.4096 22.8933 4.3466 22.8963 4.3466 23.8863 4.3466 23.0673 4.8936 23.0643 4.8936"></polygon>
        <polygon id="Fill-17" fill="#FFFFFF" mask="url(#mask-2)" points="23.0743 9.7531 23.4053 10.6811 22.6153 10.1011 22.6133 10.0961 22.6103 10.1011 21.8263 10.6811 22.1543 9.7531 22.1643 9.7491 22.1593 9.7491 21.3453 9.1971 22.3233 9.1971 22.5923 8.2601 22.8933 9.1971 22.8933 9.2021 22.8963 9.1971 23.8863 9.1971 23.0673 9.7491 23.0643 9.7491"></polygon>
        <polygon id="Fill-18" fill="#FFFFFF" mask="url(#mask-2)" points="23.0743 14.6086 23.4053 15.5366 22.6153 14.9516 22.6133 14.9466 22.6103 14.9516 21.8263 15.5366 22.1543 14.6086 22.1643 14.5996 22.1593 14.5996 21.3453 14.0516 22.3233 14.0516 22.5923 13.1156 22.8933 14.0516 22.8963 14.0516 23.8863 14.0516 23.0673 14.5996 23.0643 14.5996"></polygon>
        <polygon id="Fill-19" fill="#FFFFFF" mask="url(#mask-2)" points="23.0743 19.4592 23.4053 20.3872 22.6153 19.8072 22.6133 19.8022 22.6103 19.8072 21.8263 20.3872 22.1543 19.4592 22.1643 19.4552 22.1593 19.4552 21.3453 18.9032 22.3233 18.9032 22.5923 17.9662 22.8933 18.9032 22.8933 18.9082 22.8963 18.9032 23.8863 18.9032 23.0673 19.4552 23.0643 19.4552"></polygon>
        <polygon id="Fill-20" fill="#FFFFFF" mask="url(#mask-2)" points="17.9151 4.8986 18.2451 5.8306 17.4561 5.2456 17.4531 5.2406 17.4511 5.2456 16.6621 5.8306 16.9941 4.8986 17.0021 4.8936 16.9991 4.8936 16.1861 4.3466 17.1631 4.3466 17.4321 3.4096 17.7341 4.3466 17.7311 4.3466 17.7361 4.3466 18.7211 4.3466 17.9071 4.8936 17.9021 4.8936"></polygon>
        <polygon id="Fill-21" fill="#FFFFFF" mask="url(#mask-2)" points="17.9151 9.7531 18.2451 10.6811 17.4561 10.1011 17.4531 10.0961 17.4511 10.1011 16.6621 10.6811 16.9941 9.7531 17.0021 9.7491 16.9991 9.7491 16.1861 9.1971 17.1631 9.1971 17.4321 8.2601 17.7341 9.1971 17.7311 9.2021 17.7361 9.1971 18.7211 9.1971 17.9071 9.7491 17.9021 9.7491"></polygon>
        <polygon id="Fill-22" fill="#FFFFFF" mask="url(#mask-2)" points="17.9151 14.6086 18.2451 15.5366 17.4561 14.9516 17.4531 14.9466 17.4511 14.9516 16.6621 15.5366 16.9941 14.6086 17.0021 14.5996 16.9991 14.5996 16.1861 14.0516 17.1631 14.0516 17.4321 13.1156 17.7341 14.0516 17.7311 14.0516 17.7361 14.0516 18.7211 14.0516 17.9071 14.5996 17.9021 14.5996"></polygon>
        <polygon id="Fill-23" fill="#FFFFFF" mask="url(#mask-2)" points="17.9151 19.4592 18.2451 20.3872 17.4561 19.8072 17.4531 19.8022 17.4511 19.8072 16.6621 20.3872 16.9941 19.4592 17.0021 19.4552 16.9991 19.4552 16.1861 18.9032 17.1631 18.9032 17.4321 17.9662 17.7341 18.9032 17.7311 18.9082 17.7361 18.9032 18.7211 18.9032 17.9071 19.4552 17.9021 19.4552"></polygon>
        <polygon id="Fill-24" fill="#FFFFFF" mask="url(#mask-2)" points="12.753 4.8986 13.086 5.8306 12.294 5.2456 12.291 5.2406 12.291 5.2456 11.502 5.8306 11.83 4.8986 11.842 4.8936 11.835 4.8936 11.022 4.3466 12.001 4.3466 12.268 3.4096 12.572 4.3466 12.569 4.3466 12.574 4.3466 13.561 4.3466 12.745 4.8936 12.743 4.8936"></polygon>
        <polygon id="Fill-25" fill="#FFFFFF" mask="url(#mask-2)" points="12.753 9.7531 13.086 10.6811 12.294 10.1011 12.291 10.0961 12.291 10.1011 11.502 10.6811 11.83 9.7531 11.842 9.7491 11.835 9.7491 11.022 9.1971 12.001 9.1971 12.268 8.2601 12.572 9.1971 12.569 9.2021 12.574 9.1971 13.561 9.1971 12.745 9.7491 12.743 9.7491"></polygon>
        <polygon id="Fill-26" fill="#FFFFFF" mask="url(#mask-2)" points="12.753 14.6086 13.086 15.5366 12.294 14.9516 12.291 14.9466 12.291 14.9516 11.502 15.5366 11.83 14.6086 11.842 14.5996 11.835 14.5996 11.022 14.0516 12.001 14.0516 12.268 13.1156 12.572 14.0516 12.569 14.0516 12.574 14.0516 13.561 14.0516 12.745 14.5996 12.743 14.5996"></polygon>
        <polygon id="Fill-27" fill="#FFFFFF" mask="url(#mask-2)" points="12.753 19.4592 13.086 20.3872 12.294 19.8072 12.291 19.8022 12.291 19.8072 11.502 20.3872 11.83 19.4592 11.842 19.4552 11.835 19.4552 11.022 18.9032 12.001 18.9032 12.268 17.9662 12.572 18.9032 12.569 18.9082 12.574 18.9032 13.561 18.9032 12.745 19.4552 12.743 19.4552"></polygon>
        <polygon id="Fill-28" fill="#FFFFFF" mask="url(#mask-2)" points="7.6788 4.8986 8.0068 5.8306 7.2168 5.2456 7.2168 5.2406 7.2168 5.2456 6.4258 5.8306 6.7558 4.8986 6.7658 4.8936 6.7608 4.8936 5.9478 4.3466 6.9268 4.3466 7.1938 3.4096 7.4978 4.3466 7.4928 4.3466 7.4978 4.3466 8.4848 4.3466 7.6708 4.8936 7.6688 4.8936"></polygon>
        <polygon id="Fill-29" fill="#FFFFFF" mask="url(#mask-2)" points="7.6788 9.7531 8.0068 10.6811 7.2168 10.1011 7.2168 10.0961 7.2168 10.1011 6.4258 10.6811 6.7558 9.7531 6.7658 9.7491 6.7608 9.7491 5.9478 9.1971 6.9268 9.1971 7.1938 8.2601 7.4978 9.1971 7.4928 9.2021 7.4978 9.1971 8.4848 9.1971 7.6708 9.7491 7.6688 9.7491"></polygon>
        <polygon id="Fill-30" fill="#FFFFFF" mask="url(#mask-2)" points="7.6788 14.6086 8.0068 15.5366 7.2168 14.9516 7.2168 14.9466 7.2168 14.9516 6.4258 15.5366 6.7558 14.6086 6.7658 14.5996 6.7608 14.5996 5.9478 14.0516 6.9268 14.0516 7.1938 13.1156 7.4978 14.0516 7.4928 14.0516 7.4978 14.0516 8.4848 14.0516 7.6708 14.5996 7.6688 14.5996"></polygon>
        <polygon id="Fill-31" fill="#FFFFFF" mask="url(#mask-2)" points="7.6788 19.4592 8.0068 20.3872 7.2168 19.8072 7.2168 19.8022 7.2168 19.8072 6.4258 20.3872 6.7558 19.4592 6.7658 19.4552 6.7608 19.4552 5.9478 18.9032 6.9268 18.9032 7.1938 17.9662 7.4978 18.9032 7.4928 18.9082 7.4978 18.9032 8.4848 18.9032 7.6708 19.4552 7.6688 19.4552"></polygon>
        <polygon id="Fill-32" fill="#FFFFFF" mask="url(#mask-2)" points="2.5977 4.8986 2.9277 5.8306 2.1387 5.2456 2.1357 5.2406 2.1357 5.2456 1.3487 5.8306 1.6767 4.8986 1.6867 4.8936 1.6817 4.8936 0.8687 4.3466 1.8487 4.3466 2.1147 3.4096 2.4187 4.3466 3.4087 4.3466 2.5897 4.8936 2.5877 4.8936"></polygon>
        <polygon id="Fill-33" fill="#FFFFFF" mask="url(#mask-2)" points="2.5977 9.7531 2.9277 10.6811 2.1387 10.1011 2.1357 10.0961 2.1357 10.1011 1.3487 10.6811 1.6767 9.7531 1.6867 9.7491 1.6817 9.7491 0.8687 9.1971 1.8487 9.1971 2.1147 8.2601 2.4187 9.1971 2.4187 9.2021 2.4187 9.1971 3.4087 9.1971 2.5897 9.7491 2.5877 9.7491"></polygon>
        <polygon id="Fill-34" fill="#FFFFFF" mask="url(#mask-2)" points="2.5977 14.6086 2.9277 15.5366 2.1387 14.9516 2.1357 14.9466 2.1357 14.9516 1.3487 15.5366 1.6767 14.6086 1.6867 14.5996 1.6817 14.5996 0.8687 14.0516 1.8487 14.0516 2.1147 13.1156 2.4187 14.0516 3.4087 14.0516 2.5897 14.5996 2.5877 14.5996"></polygon>
        <polygon id="Fill-35" fill="#FFFFFF" mask="url(#mask-2)" points="2.5977 19.4592 2.9277 20.3872 2.1387 19.8072 2.1357 19.8022 2.1357 19.8072 1.3487 20.3872 1.6767 19.4592 1.6867 19.4552 1.6817 19.4552 0.8687 18.9032 1.8487 18.9032 2.1147 17.9662 2.4187 18.9032 2.4187 18.9082 2.4187 18.9032 3.4087 18.9032 2.5897 19.4552 2.5877 19.4552"></polygon>
        <polygon id="Fill-36" fill="#FFFFFF" mask="url(#mask-2)" points="25.5782 7.3234 25.9062 8.2514 25.1172 7.6704 25.1172 7.6664 25.1172 7.6704 24.3272 8.2514 24.6562 7.3234 24.6682 7.3134 24.6602 7.3134 23.8472 6.7664 24.8272 6.7664 25.0942 5.8304 25.3952 6.7664 25.3952 6.7714 25.3972 6.7664 26.3872 6.7664 25.5712 7.3134 25.5692 7.3134"></polygon>
        <polygon id="Fill-37" fill="#FFFFFF" mask="url(#mask-2)" points="25.5782 12.1789 25.9062 13.1069 25.1172 12.5219 24.3272 13.1069 24.6562 12.1789 24.6682 12.1689 24.6602 12.1689 23.8472 11.6219 24.8272 11.6219 25.0942 10.6859 25.3952 11.6219 25.3972 11.6219 26.3872 11.6219 25.5712 12.1689 25.5692 12.1689"></polygon>
        <polygon id="Fill-38" fill="#FFFFFF" mask="url(#mask-2)" points="25.5782 17.0344 25.9062 17.9664 25.1172 17.3814 25.1172 17.3774 25.1172 17.3814 24.3272 17.9664 24.6562 17.0344 24.6682 17.0294 24.6602 17.0294 23.8472 16.4774 24.8272 16.4824 25.0942 15.5464 25.3952 16.4774 25.3952 16.4824 25.3972 16.4824 26.3872 16.4774 25.5712 17.0294 25.5692 17.0294"></polygon>
        <polygon id="Fill-39" fill="#FFFFFF" mask="url(#mask-2)" points="25.5782 21.8947 25.9062 22.8267 25.1172 22.2417 25.1172 22.2367 25.1172 22.2417 24.3272 22.8267 24.6562 21.8947 24.6682 21.8897 24.6602 21.8897 23.8472 21.3427 24.8272 21.3427 25.0942 20.4057 25.3952 21.3427 25.3952 21.3477 25.3972 21.3427 26.3872 21.3427 25.5712 21.8897 25.5692 21.8897"></polygon>
        <polygon id="Fill-40" fill="#FFFFFF" mask="url(#mask-2)" points="25.5782 2.4914 25.9062 3.4194 25.1172 2.8394 25.1172 2.8344 25.1172 2.8394 24.3272 3.4194 24.6562 2.4914 24.6682 2.4824 24.6602 2.4824 23.8472 1.9354 24.8272 1.9354 25.0942 0.9984 25.3952 1.9354 25.3952 1.9394 25.3972 1.9354 26.3872 1.9354 25.5712 2.4824 25.5692 2.4824"></polygon>
        <polygon id="Fill-41" fill="#FFFFFF" mask="url(#mask-2)" points="20.5303 7.3234 20.8603 8.2514 20.0713 7.6704 20.0713 7.6664 20.0713 7.6704 19.2823 8.2514 19.6103 7.3234 19.6193 7.3134 19.6153 7.3134 18.8013 6.7664 19.7813 6.7664 20.0483 5.8304 20.3493 6.7664 20.3493 6.7714 20.3513 6.7664 21.3393 6.7664 20.5253 7.3134 20.5233 7.3134"></polygon>
        <polygon id="Fill-42" fill="#FFFFFF" mask="url(#mask-2)" points="20.5303 12.1789 20.8603 13.1069 20.0713 12.5219 19.2823 13.1069 19.6103 12.1789 19.6193 12.1689 19.6153 12.1689 18.8013 11.6219 19.7813 11.6219 20.0483 10.6859 20.3493 11.6219 20.3513 11.6219 21.3393 11.6219 20.5253 12.1689 20.5233 12.1689"></polygon>
        <polygon id="Fill-43" fill="#FFFFFF" mask="url(#mask-2)" points="20.5303 17.0344 20.8603 17.9664 20.0713 17.3814 20.0713 17.3774 20.0713 17.3814 19.2823 17.9664 19.6103 17.0344 19.6193 17.0294 19.6153 17.0294 18.8013 16.4774 19.7813 16.4824 20.0483 15.5464 20.3493 16.4774 20.3493 16.4824 20.3513 16.4824 21.3393 16.4774 20.5253 17.0294 20.5233 17.0294"></polygon>
        <polygon id="Fill-44" fill="#FFFFFF" mask="url(#mask-2)" points="20.5303 21.8947 20.8603 22.8267 20.0713 22.2417 20.0713 22.2367 20.0713 22.2417 19.2823 22.8267 19.6103 21.8947 19.6193 21.8897 19.6153 21.8897 18.8013 21.3427 19.7813 21.3427 20.0483 20.4057 20.3493 21.3427 20.3493 21.3477 20.3513 21.3427 21.3393 21.3427 20.5253 21.8897 20.5233 21.8897"></polygon>
        <polygon id="Fill-45" fill="#FFFFFF" mask="url(#mask-2)" points="20.5303 2.4914 20.8603 3.4194 20.0713 2.8394 20.0713 2.8344 20.0713 2.8394 19.2823 3.4194 19.6103 2.4914 19.6193 2.4824 19.6153 2.4824 18.8013 1.9354 19.7813 1.9354 20.0483 0.9984 20.3493 1.9354 20.3493 1.9394 20.3513 1.9354 21.3393 1.9354 20.5253 2.4824 20.5233 2.4824"></polygon>
        <polygon id="Fill-46" fill="#FFFFFF" mask="url(#mask-2)" points="15.2823 7.3234 15.6153 8.2514 14.8233 7.6704 14.8213 7.6664 14.8213 7.6704 14.0343 8.2514 14.3653 7.3234 14.3723 7.3134 14.3673 7.3134 13.5563 6.7664 14.5313 6.7664 14.8033 5.8304 15.1013 6.7664 15.1013 6.7714 15.1063 6.7664 16.0913 6.7664 15.2773 7.3134 15.2733 7.3134"></polygon>
        <polygon id="Fill-47" fill="#FFFFFF" mask="url(#mask-2)" points="15.2823 12.1789 15.6153 13.1069 14.8233 12.5219 14.8213 12.5219 14.0343 13.1069 14.3653 12.1789 14.3723 12.1689 14.3673 12.1689 13.5563 11.6219 14.5313 11.6219 14.8033 10.6859 15.1013 11.6219 15.1063 11.6219 16.0913 11.6219 15.2773 12.1689 15.2733 12.1689"></polygon>
        <polygon id="Fill-48" fill="#FFFFFF" mask="url(#mask-2)" points="15.2823 17.0344 15.6153 17.9664 14.8233 17.3814 14.8213 17.3774 14.8213 17.3814 14.0343 17.9664 14.3653 17.0344 14.3723 17.0294 14.3673 17.0294 13.5563 16.4774 14.5313 16.4824 14.8033 15.5464 15.1013 16.4774 15.1013 16.4824 15.1063 16.4824 16.0913 16.4774 15.2773 17.0294 15.2733 17.0294"></polygon>
        <polygon id="Fill-49" fill="#FFFFFF" mask="url(#mask-2)" points="15.2823 21.8947 15.6153 22.8267 14.8233 22.2417 14.8213 22.2367 14.8213 22.2417 14.0343 22.8267 14.3653 21.8947 14.3723 21.8897 14.3673 21.8897 13.5563 21.3427 14.5313 21.3427 14.8033 20.4057 15.1013 21.3427 15.1013 21.3477 15.1063 21.3427 16.0913 21.3427 15.2773 21.8897 15.2733 21.8897"></polygon>
        <polygon id="Fill-50" fill="#FFFFFF" mask="url(#mask-2)" points="15.2823 2.4914 15.6153 3.4194 14.8233 2.8394 14.8213 2.8344 14.8213 2.8394 14.0343 3.4194 14.3653 2.4914 14.3723 2.4824 14.3673 2.4824 13.5563 1.9354 14.5313 1.9354 14.8033 0.9984 15.1013 1.9354 15.1013 1.9394 15.1063 1.9354 16.0913 1.9354 15.2773 2.4824 15.2733 2.4824"></polygon>
        <polygon id="Fill-51" fill="#FFFFFF" mask="url(#mask-2)" points="10.1514 7.3234 10.4794 8.2514 9.6944 7.6704 9.6904 7.6664 9.6904 7.6704 8.9004 8.2514 9.2314 7.3234 9.2384 7.3134 9.2334 7.3134 8.4244 6.7664 9.3994 6.7664 9.6664 5.8304 9.9704 6.7664 9.9704 6.7714 9.9704 6.7664 10.9604 6.7664 10.1444 7.3134 10.1414 7.3134"></polygon>
        <polygon id="Fill-52" fill="#FFFFFF" mask="url(#mask-2)" points="10.1514 12.1789 10.4794 13.1069 9.6944 12.5219 9.6904 12.5219 8.9004 13.1069 9.2314 12.1789 9.2384 12.1689 9.2334 12.1689 8.4244 11.6219 9.3994 11.6219 9.6664 10.6859 9.9704 11.6219 10.9604 11.6219 10.1444 12.1689 10.1414 12.1689"></polygon>
        <polygon id="Fill-53" fill="#FFFFFF" mask="url(#mask-2)" points="10.1514 17.0344 10.4794 17.9664 9.6944 17.3814 9.6904 17.3774 9.6904 17.3814 8.9004 17.9664 9.2314 17.0344 9.2384 17.0294 9.2334 17.0294 8.4244 16.4774 9.3994 16.4824 9.6664 15.5464 9.9704 16.4774 9.9704 16.4824 10.9604 16.4774 10.1444 17.0294 10.1414 17.0294"></polygon>
        <polygon id="Fill-54" fill="#FFFFFF" mask="url(#mask-2)" points="10.1514 21.8947 10.4794 22.8267 9.6944 22.2417 9.6904 22.2367 9.6904 22.2417 8.9004 22.8267 9.2314 21.8947 9.2384 21.8897 9.2334 21.8897 8.4244 21.3427 9.3994 21.3427 9.6664 20.4057 9.9704 21.3427 9.9704 21.3477 9.9704 21.3427 10.9604 21.3427 10.1444 21.8897 10.1414 21.8897"></polygon>
        <polygon id="Fill-55" fill="#FFFFFF" mask="url(#mask-2)" points="10.1514 2.4914 10.4794 3.4194 9.6944 2.8394 9.6904 2.8344 9.6904 2.8394 8.9004 3.4194 9.2314 2.4914 9.2384 2.4824 9.2334 2.4824 8.4244 1.9354 9.3994 1.9354 9.6664 0.9984 9.9704 1.9354 9.9704 1.9394 9.9704 1.9354 10.9604 1.9354 10.1444 2.4824 10.1414 2.4824"></polygon>
        <polygon id="Fill-56" fill="#FFFFFF" mask="url(#mask-2)" points="5.127 7.3234 5.458 8.2514 4.668 7.6704 4.666 7.6664 4.663 7.6704 3.876 8.2514 4.207 7.3234 4.216 7.3134 4.212 7.3134 3.398 6.7664 4.373 6.7664 4.645 5.8304 4.946 6.7664 4.946 6.7714 4.949 6.7664 5.936 6.7664 5.12 7.3134 5.118 7.3134"></polygon>
        <polygon id="Fill-57" fill="#FFFFFF" mask="url(#mask-2)" points="5.127 12.1789 5.458 13.1069 4.668 12.5219 4.666 12.5219 4.663 12.5219 3.876 13.1069 4.207 12.1789 4.216 12.1689 4.212 12.1689 3.398 11.6219 4.373 11.6219 4.645 10.6859 4.946 11.6219 4.949 11.6219 5.936 11.6219 5.12 12.1689 5.118 12.1689"></polygon>
        <polygon id="Fill-58" fill="#FFFFFF" mask="url(#mask-2)" points="5.127 17.0344 5.458 17.9664 4.668 17.3814 4.666 17.3774 4.663 17.3814 3.876 17.9664 4.207 17.0344 4.216 17.0294 4.212 17.0294 3.398 16.4774 4.373 16.4824 4.645 15.5464 4.946 16.4774 4.946 16.4824 4.949 16.4824 5.936 16.4774 5.12 17.0294 5.118 17.0294"></polygon>
        <polygon id="Fill-59" fill="#FFFFFF" mask="url(#mask-2)" points="5.127 21.8947 5.458 22.8267 4.668 22.2417 4.666 22.2367 4.663 22.2417 3.876 22.8267 4.207 21.8947 4.216 21.8897 4.212 21.8897 3.398 21.3427 4.373 21.3427 4.645 20.4057 4.946 21.3427 4.946 21.3477 4.949 21.3427 5.936 21.3427 5.12 21.8897 5.118 21.8897"></polygon>
        <polygon id="Fill-60" fill="#FFFFFF" mask="url(#mask-2)" points="5.127 2.4914 5.458 3.4194 4.668 2.8394 4.666 2.8344 4.663 2.8394 3.876 3.4194 4.207 2.4914 4.216 2.4824 4.212 2.4824 3.398 1.9354 4.373 1.9354 4.645 0.9984 4.946 1.9354 4.946 1.9394 4.949 1.9354 5.936 1.9354 5.12 2.4824 5.118 2.4824"></polygon>
        <polygon id="Fill-61" fill="#FFFFFF" mask="url(#mask-2)" points="0.0176 7.3234 0.3476 8.2514 -0.4394 7.6704 -0.4444 7.6664 -0.4444 7.6704 -1.2334 8.2514 -0.9004 7.3234 -0.8934 7.3134 -0.8954 7.3134 -1.7134 6.7664 -0.7344 6.7664 -0.4674 5.8304 -0.1634 6.7664 -0.1634 6.7714 -0.1634 6.7664 0.8266 6.7664 0.0126 7.3134 0.0076 7.3134"></polygon>
        <polygon id="Fill-62" fill="#FFFFFF" mask="url(#mask-2)" points="0.0176 12.1789 0.3476 13.1069 -0.4394 12.5219 -0.4444 12.5219 -1.2334 13.1069 -0.9004 12.1789 -0.8934 12.1689 -0.8954 12.1689 -1.7134 11.6219 -0.7344 11.6219 -0.4674 10.6859 -0.1634 11.6219 0.8266 11.6219 0.0126 12.1689 0.0076 12.1689"></polygon>
        <polygon id="Fill-63" fill="#FFFFFF" mask="url(#mask-2)" points="0.0176 17.0344 0.3476 17.9664 -0.4394 17.3814 -0.4444 17.3774 -0.4444 17.3814 -1.2334 17.9664 -0.9004 17.0344 -0.8934 17.0294 -0.8954 17.0294 -1.7134 16.4774 -0.7344 16.4824 -0.4674 15.5464 -0.1634 16.4774 -0.1634 16.4824 0.8266 16.4774 0.0126 17.0294 0.0076 17.0294"></polygon>
        <polygon id="Fill-64" fill="#FFFFFF" mask="url(#mask-2)" points="0.0176 21.8947 0.3476 22.8267 -0.4394 22.2417 -0.4444 22.2367 -0.4444 22.2417 -1.2334 22.8267 -0.9004 21.8947 -0.8934 21.8897 -0.8954 21.8897 -1.7134 21.3427 -0.7344 21.3427 -0.4674 20.4057 -0.1634 21.3427 -0.1634 21.3477 -0.1634 21.3427 0.8266 21.3427 0.0126 21.8897 0.0076 21.8897"></polygon>
        <polygon id="Fill-65" fill="#FFFFFF" mask="url(#mask-2)" points="0.0176 2.4914 0.3476 3.4194 -0.4394 2.8394 -0.4444 2.8344 -0.4444 2.8394 -1.2334 3.4194 -0.9004 2.4914 -0.8934 2.4824 -0.8954 2.4824 -1.7134 1.9354 -0.7344 1.9354 -0.4674 0.9984 -0.1634 1.9354 -0.1634 1.9394 -0.1634 1.9354 0.8266 1.9354 0.0126 2.4824 0.0076 2.4824"></polygon>
    </g>
</svg>